<svg width="131" height="38" viewBox="0 0 131 38" fill="none" xmlns="http://www.w3.org/2000/svg">
<path d="M7.54982 11.4502L8.57836 12.4449L2.02325 18.9999L19.0001 35.9767V37.9999L0 18.9999L7.54982 11.4502Z" fill="#BB9C64"/>
<path d="M21.1709 35.9766L38.1476 18.9998L31.6806 12.5318L32.7091 11.5381L40.1709 18.9998L21.1709 37.9998V35.9766Z" fill="url(#paint0_linear_980_229)"/>
<path d="M11.1871 14.9643L7.28935 18.8619L19.0007 30.5732V32.9077L5.09326 19.0001L10.1402 13.9531L11.1871 14.9643Z" fill="url(#paint1_linear_980_229)"/>
<path d="M14.9664 18.7875V23.152L10.6772 18.8619L12.9103 16.6289L12.9905 16.7053L14.9664 18.7875Z" fill="url(#paint2_linear_980_229)"/>
<path d="M14.6079 14.9318L18.8883 10.6514V27.0742L17.362 25.5478V17.8318L14.6079 14.9318Z" fill="url(#paint3_linear_980_229)"/>
<path d="M19.0003 5.09277V7.15083L12.7217 13.4294L11.6748 12.4182L19.0003 5.09277Z" fill="url(#paint4_linear_980_229)"/>
<path d="M19.0006 2.02325L10.114 10.9109L9.08447 9.91615L19.0006 0V2.02325Z" fill="url(#paint5_linear_980_229)"/>
<path d="M21.1709 2.02325V0L31.174 10.0032L30.1455 10.9979L21.1709 2.02325Z" fill="url(#paint6_linear_980_229)"/>
<path d="M27.5364 13.5173L21.1709 7.15083V5.09277L28.5843 12.5062L27.5364 13.5173Z" fill="url(#paint7_linear_980_229)"/>
<path d="M22.8096 17.8434V25.5468L21.2822 27.0732V10.6494L25.5211 14.8883L22.8096 17.8434Z" fill="url(#paint8_linear_980_229)"/>
<path d="M25.3252 18.6733L27.3504 16.7158L29.4964 18.8628L25.3252 23.034V18.6733Z" fill="url(#paint9_linear_980_229)"/>
<path d="M21.1709 30.5741L32.8821 18.8618L29.0715 15.0522L30.1184 14.041L35.0784 19.0001L21.1709 32.9076V30.5741Z" fill="url(#paint10_linear_980_229)"/>
<path d="M7.54982 11.4502L8.57836 12.4449L2.02325 18.9999L19.0001 35.9767V37.9999L0 18.9999L7.54982 11.4502Z" fill="#BB9C64"/>
<path d="M21.1709 35.9766L38.1476 18.9998L31.6806 12.5318L32.7091 11.5381L40.1709 18.9998L21.1709 37.9998V35.9766Z" fill="#BB9C64"/>
<path d="M11.1871 14.9643L7.28935 18.8619L19.0007 30.5732V32.9077L5.09326 19.0001L10.1402 13.9531L11.1871 14.9643Z" fill="#BB9C64"/>
<path d="M14.9664 18.7875V23.152L10.6772 18.8619L12.9103 16.6289L12.9905 16.7053L14.9664 18.7875Z" fill="#BB9C64"/>
<path d="M14.6079 14.9318L18.8883 10.6514V27.0742L17.362 25.5478V17.8318L14.6079 14.9318Z" fill="#BB9C64"/>
<path d="M19.0003 5.09277V7.15083L12.7217 13.4294L11.6748 12.4182L19.0003 5.09277Z" fill="#BB9C64"/>
<path d="M19.0006 2.02325L10.114 10.9109L9.08447 9.91615L19.0006 0V2.02325Z" fill="#BB9C64"/>
<path d="M21.1709 2.02325V0L31.174 10.0032L30.1455 10.9979L21.1709 2.02325Z" fill="#BB9C64"/>
<path d="M27.5364 13.5173L21.1709 7.15083V5.09277L28.5843 12.5062L27.5364 13.5173Z" fill="#BB9C64"/>
<path d="M22.8096 17.8434V25.5468L21.2822 27.0732V10.6494L25.5211 14.8883L22.8096 17.8434Z" fill="#BB9C64"/>
<path d="M25.3252 18.6733L27.3504 16.7158L29.4964 18.8628L25.3252 23.034V18.6733Z" fill="#BB9C64"/>
<path d="M21.1709 30.5741L32.8821 18.8618L29.0715 15.0522L30.1184 14.041L35.0784 19.0001L21.1709 32.9076V30.5741Z" fill="#BB9C64"/>
<path d="M59.567 13.1582L58.0203 13.1698V13.1195C58.0203 12.6865 57.6615 12.3288 57.2284 12.3288H53.7144C53.2813 12.3288 52.9225 12.6865 52.9225 13.1195V13.1698C52.9225 13.6029 53.2813 13.9625 53.7144 13.9625H56.8325C57.6368 13.9625 58.3544 14.3085 58.8494 14.8518C58.8865 14.8905 58.9112 14.9272 58.9484 14.9639C59.3319 15.4337 59.567 16.0408 59.567 16.6962C59.567 18.2062 58.342 19.43 56.8325 19.43H54.1227C52.6132 19.43 51.3882 18.2062 51.3882 16.6962H52.9349C52.9349 17.3516 53.4669 17.8833 54.1227 17.8833H56.8325C57.4883 17.8833 58.0327 17.3516 58.0327 16.6962C58.0327 16.0408 57.4883 15.5091 56.8325 15.5091H53.7144C53.0833 15.5091 52.5142 15.2617 52.0935 14.8518C51.9821 14.7416 51.8831 14.6178 51.7965 14.4806C51.5367 14.1094 51.3882 13.6531 51.3882 13.1582V13.1079C51.3882 11.8203 52.4275 10.7686 53.7144 10.7686H57.2284C58.5153 10.7686 59.567 11.8203 59.567 13.1079V13.1582ZM68.7989 17.8833L69.5897 19.43H67.8574L67.0667 17.8833L65.172 14.1713L63.2792 17.8833L62.4875 19.43H60.7553L61.5472 17.8833L65.172 10.7686L68.7989 17.8833ZM78.5643 10.7686L80.111 10.7821V19.4435L78.5643 18.2545L72.9963 13.9625V19.4435H71.4496V10.8072L72.9963 11.9943L78.5643 16.2883V10.7686ZM82.46 10.7686L86.7791 10.7821C89.1668 10.7821 91.1098 12.7116 91.1098 15.0993C91.1098 16.1646 90.7251 17.1409 90.0832 17.8968C90.0078 17.9838 89.9208 18.0689 89.8357 18.1559C89.0547 18.9485 87.9797 19.43 86.7907 19.43H82.46V10.7686ZM83.9951 12.3288V17.8968H86.7791C88.3122 17.8968 89.5631 16.6459 89.5631 15.1128C89.5631 13.5777 88.3122 12.3288 86.7791 12.3288H83.9951ZM96.0688 17.8833L100.61 17.8968V19.4435H96.2177C95.7846 19.4435 95.3748 19.3449 95.0036 19.1593C94.4603 18.8867 94.0137 18.4401 93.7546 17.8968C93.569 17.5256 93.4704 17.1177 93.4704 16.6846V10.7821H95.0171V16.8316C95.0906 17.3768 95.5236 17.8098 96.0688 17.8833ZM104.504 19.43H102.957V10.7686H104.504V19.43ZM113.966 10.7686L115.513 10.7821V19.4435L113.966 18.2545L108.398 13.9625V19.4435H106.851V10.8072L108.398 11.9943L113.966 16.2883V10.7686ZM120.199 12.3152C119.766 12.3152 119.406 12.6749 119.406 13.1079V13.9122H124.974V15.4589H119.406V17.0925C119.406 17.5256 119.766 17.8833 120.199 17.8833H126.521V19.43H120.199C118.911 19.43 117.873 18.3782 117.873 17.0925V13.1079C117.873 11.8203 118.911 10.7686 120.199 10.7686H126.521V12.3152H120.199Z" fill="#BB9C64"/>
<path d="M49.6709 27.1624V22.2903H51.8007C53.3806 22.2903 54.4594 23.2647 54.4594 24.7263C54.4594 26.1879 53.3806 27.1624 51.8007 27.1624H49.6709ZM50.5757 26.3968H51.7589C52.8447 26.3968 53.5476 25.7355 53.5476 24.7263C53.5476 23.7171 52.8447 23.0559 51.7589 23.0559H50.5757V26.3968ZM55.7691 27.1624V22.2903H56.6739V27.1624H55.7691ZM61.6665 26.1879V24.6722H62.5226V26.6133C62.0146 27.0231 61.3046 27.232 60.6156 27.232C59.1053 27.232 57.9916 26.1821 57.9916 24.7263C57.9916 23.2724 59.1052 22.2207 60.6295 22.2207C61.4438 22.2207 62.1259 22.4933 62.5853 23.0153L62.0145 23.5721C61.6317 23.1893 61.1933 23.0153 60.6713 23.0153C59.6342 23.0153 58.9034 23.7171 58.9034 24.7263C58.9034 25.7162 59.6342 26.4393 60.6643 26.4393C61.0123 26.4393 61.3533 26.3697 61.6665 26.1879ZM64.0643 27.1624V22.2903H64.9691V27.1624H64.0643ZM67.6236 27.1624V23.0559H66.0073V22.2903H70.1427V23.0559H68.5284V27.1624H67.6236ZM74.572 27.1624L74.0848 26.0352H71.6488L71.1693 27.1624H70.2355L72.428 22.2903H73.3192L75.5194 27.1624H74.572ZM71.9543 25.3257H73.7852L72.8668 23.1951L71.9543 25.3257ZM76.4861 27.1624V22.2903H77.3909V26.3968H79.939V27.1624H76.4861ZM85.277 22.2903C86.5569 22.2903 87.3515 22.9457 87.3515 24.0245C87.3515 25.0956 86.5569 25.7568 85.277 25.7568H84.1769V27.1624H83.2721V22.2903H85.277ZM85.2345 24.9912C86.0291 24.9912 86.4389 24.6374 86.4389 24.0245C86.4389 23.4117 86.0291 23.0559 85.2345 23.0559H84.1769V24.9912H85.2345ZM92.7649 27.1624H91.7905L90.7948 25.7356C90.7329 25.7433 90.6691 25.7433 90.6072 25.7433H89.5072V27.1624H88.6024V22.2903H90.6072C91.8871 22.2903 92.6817 22.9457 92.6817 24.0245C92.6817 24.7611 92.3047 25.3044 91.6435 25.5615L92.7649 27.1624ZM91.7692 24.0245C91.7692 23.4117 91.3593 23.0559 90.5647 23.0559H89.5072V24.9989H90.5647C91.3593 24.9989 91.7692 24.6374 91.7692 24.0245ZM94.0409 27.1624V22.2903H94.9457V27.1624H94.0409ZM100.127 22.2903H101.032L98.909 27.1624H98.0178L95.8891 22.2903H96.8694L98.4914 26.0487L100.127 22.2903ZM105.386 27.1624L104.899 26.0352H102.463L101.981 27.1624H101.049L103.242 22.2903H104.133L106.331 27.1624H105.386ZM102.768 25.3257H104.599L103.681 23.1951L102.768 25.3257ZM108.042 27.1624V23.0559H106.428V22.2903H110.563V23.0559H108.947V27.1624H108.042ZM112.495 26.4045H115.244V27.1624H111.59V22.2903H115.145V23.0501H112.495V24.3165H114.848V25.0608H112.495V26.4045ZM117.506 26.4045H120.255V27.1624H116.601V22.2903H120.157V23.0501H117.506V24.3165H119.857V25.0608H117.506V26.4045ZM125.773 27.1624H124.799L123.803 25.7356C123.741 25.7433 123.677 25.7433 123.615 25.7433H122.515V27.1624H121.61V22.2903H123.615C124.895 22.2903 125.69 22.9457 125.69 24.0245C125.69 24.7611 125.313 25.3044 124.652 25.5615L125.773 27.1624ZM124.777 24.0245C124.777 23.4117 124.367 23.0559 123.573 23.0559H122.515V24.9989H123.573C124.367 24.9989 124.777 24.6374 124.777 24.0245ZM128.561 27.232C127.801 27.232 127.043 26.9961 126.639 26.6481L126.952 25.9443C127.343 26.2575 127.961 26.4818 128.561 26.4818C129.319 26.4818 129.64 26.2092 129.64 25.8477C129.64 24.7959 126.743 25.4861 126.743 23.6765C126.743 22.8896 127.37 22.2207 128.706 22.2207C129.292 22.2207 129.903 22.3754 130.328 22.6538L130.042 23.3556C129.605 23.0985 129.123 22.9728 128.7 22.9728C127.948 22.9728 127.641 23.2647 127.641 23.634C127.641 24.6722 130.529 23.9956 130.529 25.7858C130.529 26.565 129.897 27.232 128.561 27.232Z" fill="#BB9C64"/>
<path d="M59.567 13.1582L58.0203 13.1698V13.1195C58.0203 12.6865 57.6615 12.3288 57.2284 12.3288H53.7144C53.2813 12.3288 52.9225 12.6865 52.9225 13.1195V13.1698C52.9225 13.6029 53.2813 13.9625 53.7144 13.9625H56.8325C57.6368 13.9625 58.3544 14.3085 58.8494 14.8518C58.8865 14.8905 58.9112 14.9272 58.9484 14.9639C59.3319 15.4337 59.567 16.0408 59.567 16.6962C59.567 18.2062 58.342 19.43 56.8325 19.43H54.1227C52.6132 19.43 51.3882 18.2062 51.3882 16.6962H52.9349C52.9349 17.3516 53.4669 17.8833 54.1227 17.8833H56.8325C57.4883 17.8833 58.0327 17.3516 58.0327 16.6962C58.0327 16.0408 57.4883 15.5091 56.8325 15.5091H53.7144C53.0833 15.5091 52.5142 15.2617 52.0935 14.8518C51.9821 14.7416 51.8831 14.6178 51.7965 14.4806C51.5367 14.1094 51.3882 13.6531 51.3882 13.1582V13.1079C51.3882 11.8203 52.4275 10.7686 53.7144 10.7686H57.2284C58.5153 10.7686 59.567 11.8203 59.567 13.1079V13.1582ZM68.7989 17.8833L69.5897 19.43H67.8574L67.0667 17.8833L65.172 14.1713L63.2792 17.8833L62.4875 19.43H60.7553L61.5472 17.8833L65.172 10.7686L68.7989 17.8833ZM78.5643 10.7686L80.111 10.7821V19.4435L78.5643 18.2545L72.9963 13.9625V19.4435H71.4496V10.8072L72.9963 11.9943L78.5643 16.2883V10.7686ZM82.46 10.7686L86.7791 10.7821C89.1668 10.7821 91.1098 12.7116 91.1098 15.0993C91.1098 16.1646 90.7251 17.1409 90.0832 17.8968C90.0078 17.9838 89.9208 18.0689 89.8357 18.1559C89.0547 18.9485 87.9797 19.43 86.7907 19.43H82.46V10.7686ZM83.9951 12.3288V17.8968H86.7791C88.3122 17.8968 89.5631 16.6459 89.5631 15.1128C89.5631 13.5777 88.3122 12.3288 86.7791 12.3288H83.9951ZM96.0688 17.8833L100.61 17.8968V19.4435H96.2177C95.7846 19.4435 95.3748 19.3449 95.0036 19.1593C94.4603 18.8867 94.0137 18.4401 93.7546 17.8968C93.569 17.5256 93.4704 17.1177 93.4704 16.6846V10.7821H95.0171V16.8316C95.0906 17.3768 95.5236 17.8098 96.0688 17.8833ZM104.504 19.43H102.957V10.7686H104.504V19.43ZM113.966 10.7686L115.513 10.7821V19.4435L113.966 18.2545L108.398 13.9625V19.4435H106.851V10.8072L108.398 11.9943L113.966 16.2883V10.7686ZM120.199 12.3152C119.766 12.3152 119.406 12.6749 119.406 13.1079V13.9122H124.974V15.4589H119.406V17.0925C119.406 17.5256 119.766 17.8833 120.199 17.8833H126.521V19.43H120.199C118.911 19.43 117.873 18.3782 117.873 17.0925V13.1079C117.873 11.8203 118.911 10.7686 120.199 10.7686H126.521V12.3152H120.199Z" fill="#BB9C64"/>
<path d="M49.6709 27.1624V22.2903H51.8007C53.3806 22.2903 54.4594 23.2647 54.4594 24.7263C54.4594 26.1879 53.3806 27.1624 51.8007 27.1624H49.6709ZM50.5757 26.3968H51.7589C52.8447 26.3968 53.5476 25.7355 53.5476 24.7263C53.5476 23.7171 52.8447 23.0559 51.7589 23.0559H50.5757V26.3968ZM55.7691 27.1624V22.2903H56.6739V27.1624H55.7691ZM61.6665 26.1879V24.6722H62.5226V26.6133C62.0146 27.0231 61.3046 27.232 60.6156 27.232C59.1053 27.232 57.9916 26.1821 57.9916 24.7263C57.9916 23.2724 59.1052 22.2207 60.6295 22.2207C61.4438 22.2207 62.1259 22.4933 62.5853 23.0153L62.0145 23.5721C61.6317 23.1893 61.1933 23.0153 60.6713 23.0153C59.6342 23.0153 58.9034 23.7171 58.9034 24.7263C58.9034 25.7162 59.6342 26.4393 60.6643 26.4393C61.0123 26.4393 61.3533 26.3697 61.6665 26.1879ZM64.0643 27.1624V22.2903H64.9691V27.1624H64.0643ZM67.6236 27.1624V23.0559H66.0073V22.2903H70.1427V23.0559H68.5284V27.1624H67.6236ZM74.572 27.1624L74.0848 26.0352H71.6488L71.1693 27.1624H70.2355L72.428 22.2903H73.3192L75.5194 27.1624H74.572ZM71.9543 25.3257H73.7852L72.8668 23.1951L71.9543 25.3257ZM76.4861 27.1624V22.2903H77.3909V26.3968H79.939V27.1624H76.4861ZM85.277 22.2903C86.5569 22.2903 87.3515 22.9457 87.3515 24.0245C87.3515 25.0956 86.5569 25.7568 85.277 25.7568H84.1769V27.1624H83.2721V22.2903H85.277ZM85.2345 24.9912C86.0291 24.9912 86.4389 24.6374 86.4389 24.0245C86.4389 23.4117 86.0291 23.0559 85.2345 23.0559H84.1769V24.9912H85.2345ZM92.7649 27.1624H91.7905L90.7948 25.7356C90.7329 25.7433 90.6691 25.7433 90.6072 25.7433H89.5072V27.1624H88.6024V22.2903H90.6072C91.8871 22.2903 92.6817 22.9457 92.6817 24.0245C92.6817 24.7611 92.3047 25.3044 91.6435 25.5615L92.7649 27.1624ZM91.7692 24.0245C91.7692 23.4117 91.3593 23.0559 90.5647 23.0559H89.5072V24.9989H90.5647C91.3593 24.9989 91.7692 24.6374 91.7692 24.0245ZM94.0409 27.1624V22.2903H94.9457V27.1624H94.0409ZM100.127 22.2903H101.032L98.909 27.1624H98.0178L95.8891 22.2903H96.8694L98.4914 26.0487L100.127 22.2903ZM105.386 27.1624L104.899 26.0352H102.463L101.981 27.1624H101.049L103.242 22.2903H104.133L106.331 27.1624H105.386ZM102.768 25.3257H104.599L103.681 23.1951L102.768 25.3257ZM108.042 27.1624V23.0559H106.428V22.2903H110.563V23.0559H108.947V27.1624H108.042ZM112.495 26.4045H115.244V27.1624H111.59V22.2903H115.145V23.0501H112.495V24.3165H114.848V25.0608H112.495V26.4045ZM117.506 26.4045H120.255V27.1624H116.601V22.2903H120.157V23.0501H117.506V24.3165H119.857V25.0608H117.506V26.4045ZM125.773 27.1624H124.799L123.803 25.7356C123.741 25.7433 123.677 25.7433 123.615 25.7433H122.515V27.1624H121.61V22.2903H123.615C124.895 22.2903 125.69 22.9457 125.69 24.0245C125.69 24.7611 125.313 25.3044 124.652 25.5615L125.773 27.1624ZM124.777 24.0245C124.777 23.4117 124.367 23.0559 123.573 23.0559H122.515V24.9989H123.573C124.367 24.9989 124.777 24.6374 124.777 24.0245ZM128.561 27.232C127.801 27.232 127.043 26.9961 126.639 26.6481L126.952 25.9443C127.343 26.2575 127.961 26.4818 128.561 26.4818C129.319 26.4818 129.64 26.2092 129.64 25.8477C129.64 24.7959 126.743 25.4861 126.743 23.6765C126.743 22.8896 127.37 22.2207 128.706 22.2207C129.292 22.2207 129.903 22.3754 130.328 22.6538L130.042 23.3556C129.605 23.0985 129.123 22.9728 128.7 22.9728C127.948 22.9728 127.641 23.2647 127.641 23.634C127.641 24.6722 130.529 23.9956 130.529 25.7858C130.529 26.565 129.897 27.232 128.561 27.232Z" fill="#BB9C64"/>
<defs>
<linearGradient id="paint0_linear_980_229" x1="30.6714" y1="11.5381" x2="30.6714" y2="37.9998" gradientUnits="userSpaceOnUse">
<stop stop-color="#EF3E36"/>
<stop offset="0.235577" stop-color="#2B2D42"/>
<stop offset="0.754808" stop-color="#2B2D42"/>
<stop offset="0.971154" stop-color="#EF3E36"/>
</linearGradient>
<linearGradient id="paint1_linear_980_229" x1="12.0474" y1="13.9531" x2="12.0474" y2="32.9077" gradientUnits="userSpaceOnUse">
<stop stop-color="#EF3E36"/>
<stop offset="0.235577" stop-color="#2B2D42"/>
<stop offset="0.754808" stop-color="#2B2D42"/>
<stop offset="0.971154" stop-color="#EF3E36"/>
</linearGradient>
<linearGradient id="paint2_linear_980_229" x1="12.8223" y1="16.6289" x2="12.8223" y2="23.152" gradientUnits="userSpaceOnUse">
<stop stop-color="#EF3E36"/>
<stop offset="0.235577" stop-color="#2B2D42"/>
<stop offset="0.754808" stop-color="#2B2D42"/>
<stop offset="0.971154" stop-color="#EF3E36"/>
</linearGradient>
<linearGradient id="paint3_linear_980_229" x1="16.7481" y1="10.6514" x2="16.7481" y2="27.0742" gradientUnits="userSpaceOnUse">
<stop stop-color="#EF3E36"/>
<stop offset="0.235577" stop-color="#2B2D42"/>
<stop offset="0.754808" stop-color="#2B2D42"/>
<stop offset="0.971154" stop-color="#EF3E36"/>
</linearGradient>
<linearGradient id="paint4_linear_980_229" x1="15.3375" y1="5.09277" x2="15.3375" y2="13.4294" gradientUnits="userSpaceOnUse">
<stop stop-color="#EF3E36"/>
<stop offset="0.235577" stop-color="#2B2D42"/>
<stop offset="0.754808" stop-color="#2B2D42"/>
<stop offset="0.971154" stop-color="#EF3E36"/>
</linearGradient>
<linearGradient id="paint5_linear_980_229" x1="14.0425" y1="0" x2="14.0425" y2="10.9109" gradientUnits="userSpaceOnUse">
<stop stop-color="#EF3E36"/>
<stop offset="0.235577" stop-color="#2B2D42"/>
<stop offset="0.754808" stop-color="#2B2D42"/>
<stop offset="0.971154" stop-color="#EF3E36"/>
</linearGradient>
<linearGradient id="paint6_linear_980_229" x1="26.1725" y1="0" x2="26.1725" y2="10.9979" gradientUnits="userSpaceOnUse">
<stop stop-color="#EF3E36"/>
<stop offset="0.235577" stop-color="#2B2D42"/>
<stop offset="0.754808" stop-color="#2B2D42"/>
<stop offset="0.971154" stop-color="#EF3E36"/>
</linearGradient>
<linearGradient id="paint7_linear_980_229" x1="24.8771" y1="5.09277" x2="24.8771" y2="13.5173" gradientUnits="userSpaceOnUse">
<stop stop-color="#EF3E36"/>
<stop offset="0.235577" stop-color="#2B2D42"/>
<stop offset="0.754808" stop-color="#2B2D42"/>
<stop offset="0.971154" stop-color="#EF3E36"/>
</linearGradient>
<linearGradient id="paint8_linear_980_229" x1="23.4021" y1="10.6494" x2="23.4021" y2="27.0732" gradientUnits="userSpaceOnUse">
<stop stop-color="#EF3E36"/>
<stop offset="0.235577" stop-color="#2B2D42"/>
<stop offset="0.754808" stop-color="#2B2D42"/>
<stop offset="0.971154" stop-color="#EF3E36"/>
</linearGradient>
<linearGradient id="paint9_linear_980_229" x1="27.4103" y1="16.7158" x2="27.4103" y2="23.034" gradientUnits="userSpaceOnUse">
<stop stop-color="#EF3E36"/>
<stop offset="0.235577" stop-color="#2B2D42"/>
<stop offset="0.754808" stop-color="#2B2D42"/>
<stop offset="0.971154" stop-color="#EF3E36"/>
</linearGradient>
<linearGradient id="paint10_linear_980_229" x1="28.1242" y1="14.041" x2="28.1242" y2="32.9076" gradientUnits="userSpaceOnUse">
<stop stop-color="#EF3E36"/>
<stop offset="0.235577" stop-color="#2B2D42"/>
<stop offset="0.754808" stop-color="#2B2D42"/>
<stop offset="0.971154" stop-color="#EF3E36"/>
</linearGradient>
</defs>
</svg>
